<svg xmlns="http://www.w3.org/2000/svg" xmlns:xlink="http://www.w3.org/1999/xlink" width="24" height="20" viewBox="0 0 24 20">
  <defs>
    <radialGradient id="radial-gradient" cx="0.225" cy="0.081" r="1.189" gradientUnits="objectBoundingBox">
      <stop offset="0" stop-color="#fff" stop-opacity="0.102"/>
      <stop offset="1" stop-color="#fff" stop-opacity="0"/>
    </radialGradient>
  </defs>
  <g id="google_news" data-name="google news" transform="translate(-0.018 0)">
    <path id="Caminho_1095" data-name="Caminho 1095" d="M1353.909,13.554a.614.614,0,0,1-.6.618h-12.8a.614.614,0,0,1-.6-.618V.618a.614.614,0,0,1,.6-.618h12.8a.613.613,0,0,1,.6.618V13.554Z" transform="translate(-1334.887 0)" fill="#0c9d58"/>
    <path id="Caminho_1096" data-name="Caminho 1096" d="M3890.242,722.036l-4.942-.636,4.942,1.326Z" transform="translate(-3871.112 -718.711)" fill="#004d40" opacity="0.2"/>
    <path id="Caminho_1097" data-name="Caminho 1097" d="M1339.483,167.536,1332,170.877l8.271-3.01v-.008A.6.6,0,0,0,1339.483,167.536Z" transform="translate(-1327.146 -166.861)" fill="#004d40" opacity="0.2"/>
    <path id="Caminho_1098" data-name="Caminho 1098" d="M1353.305,0h-12.8a.614.614,0,0,0-.6.618V.757a.614.614,0,0,1,.6-.618h12.8a.613.613,0,0,1,.6.618V.618A.614.614,0,0,0,1353.305,0Z" transform="translate(-1334.887 0)" fill="#fff" opacity="0.2"/>
    <path id="Caminho_1099" data-name="Caminho 1099" d="M2192.055,533.47a.6.6,0,0,0,.395.754l12.213,3.288a.6.6,0,0,0,.719-.455l2.876-10.749a.6.6,0,0,0-.4-.754l-12.212-3.288a.6.6,0,0,0-.719.455Z" transform="translate(-2184.264 -520.3)" fill="#ea4335"/>
    <path id="Caminho_1100" data-name="Caminho 1100" d="M5806.4,2638.1l.643,3.9-.643,2.4Z" transform="translate(-5785.157 -2628.252)" fill="#3e2723" opacity="0.2"/>
    <path id="Caminho_1101" data-name="Caminho 1101" d="M3900.8,764.1l.575.155.357,2.408Z" transform="translate(-3886.501 -761.252)" fill="#3e2723" opacity="0.2"/>
    <path id="Caminho_1102" data-name="Caminho 1102" d="M2211.617,525.549l-12.212-3.284a.6.6,0,0,0-.719.455l-2.877,10.737c0,.018-.006.036-.009.054l2.856-10.656a.6.6,0,0,1,.719-.455l12.212,3.284a.6.6,0,0,1,.4.7l.022-.082A.6.6,0,0,0,2211.617,525.549Z" transform="translate(-2188.018 -520.3)" fill="#fff" opacity="0.2"/>
    <path id="Caminho_1103" data-name="Caminho 1103" d="M17.885,270.171a.605.605,0,0,1-.328.786l-12.887,4.7a.6.6,0,0,1-.756-.391L.112,264.8a.605.605,0,0,1,.328-.786l12.887-4.7a.6.6,0,0,1,.756.391Z" transform="translate(-0.053 -258.325)" fill="#ffc107"/>
    <path id="Caminho_1104" data-name="Caminho 1104" d="M.107,264.83a.6.6,0,0,1,.328-.785l12.887-4.691a.6.6,0,0,1,.751.38l-.044-.122a.6.6,0,0,0-.756-.39L.387,263.914a.6.6,0,0,0-.328.785l3.8,10.445s0,.006,0,.01Z" transform="translate(0 -258.225)" fill="#fff" opacity="0.2"/>
    <path id="Caminho_1105" data-name="Caminho 1105" d="M762.85,1465.545a.62.62,0,0,1-.611.625H745.01a.62.62,0,0,1-.611-.625v-13.321a.62.62,0,0,1,.611-.625h17.229a.62.62,0,0,1,.611.625Z" transform="translate(-741.607 -1446.171)" fill="#4285f4"/>
    <path id="Caminho_1106" data-name="Caminho 1106" d="M3494.673,2495.188H3489.4V2493.8h5.273a.278.278,0,0,1,.278.277v.833A.278.278,0,0,1,3494.673,2495.188Zm0,5.272H3489.4v-1.387h5.273a.278.278,0,0,1,.278.277v.833A.278.278,0,0,1,3494.673,2500.46Zm.833-2.636H3489.4v-1.388h6.105a.278.278,0,0,1,.278.278v.832A.278.278,0,0,1,3495.505,2497.824Z" transform="translate(-3476.678 -2484.491)" fill="#fff"/>
    <path id="Caminho_1107" data-name="Caminho 1107" d="M762.239,5155.624H745.01a.619.619,0,0,1-.611-.624v.139a.62.62,0,0,0,.611.625h17.229a.62.62,0,0,0,.611-.625V5155A.619.619,0,0,1,762.239,5155.624Z" transform="translate(-741.607 -5135.764)" fill="#1a237e" opacity="0.2"/>
    <path id="Caminho_1108" data-name="Caminho 1108" d="M745.01,1451.739h17.229a.62.62,0,0,1,.611.625v-.139a.62.62,0,0,0-.611-.624H745.01a.62.62,0,0,0-.611.624v.139A.62.62,0,0,1,745.01,1451.739Z" transform="translate(-741.607 -1446.184)" fill="#fff" opacity="0.2"/>
    <path id="Caminho_1109" data-name="Caminho 1109" d="M1333.83,2496.575v1.251h1.8a1.7,1.7,0,0,1-1.8,1.315,2.012,2.012,0,0,1,0-4.024,1.807,1.807,0,0,1,1.278.5h0l.95-.95a3.2,3.2,0,0,0-2.229-.868,3.33,3.33,0,1,0,0,6.66,3.065,3.065,0,0,0,3.189-3.255,3.959,3.959,0,0,0-.053-.631Z" transform="translate(-1325.639 -2484.491)" fill="#fff"/>
    <g id="Grupo_4795" data-name="Grupo 4795" transform="translate(4.895 10.183)" opacity="0.2">
      <path id="Caminho_1110" data-name="Caminho 1110" d="M2233.2,3573.9v.139h1.762a1.418,1.418,0,0,0,.034-.139Z" transform="translate(-2229.869 -3570.747)" fill="#1a237e"/>
      <path id="Caminho_1111" data-name="Caminho 1111" d="M1343.23,2733.887a3.329,3.329,0,0,1-3.328-3.261c0,.023,0,.046,0,.069a3.33,3.33,0,0,0,3.33,3.33,3.065,3.065,0,0,0,3.189-3.254c0-.015,0-.029,0-.045A3.055,3.055,0,0,1,1343.23,2733.887Zm1.278-4.843a1.812,1.812,0,0,0-1.278-.5,2.007,2.007,0,0,0-1.974,2.012c0,.024,0,.046,0,.07a2,2,0,0,1,1.971-1.943,1.807,1.807,0,0,1,1.278.5h0l1.02-1.02c-.024-.022-.05-.042-.075-.064l-.944.945Z" transform="translate(-1339.9 -2728.1)" fill="#1a237e"/>
    </g>
    <path id="Caminho_1112" data-name="Caminho 1112" d="M3494.95,2791.639v-.139a.277.277,0,0,1-.278.277H3489.4v.139h5.273A.277.277,0,0,0,3494.95,2791.639Zm-.278,5.412H3489.4v.139h5.273a.277.277,0,0,0,.278-.277v-.139A.277.277,0,0,1,3494.673,2797.05Zm.833-2.636H3489.4v.139h6.105a.278.278,0,0,0,.278-.278v-.138A.277.277,0,0,1,3495.505,2794.414Z" transform="translate(-3476.678 -2781.08)" fill="#1a237e" opacity="0.2"/>
    <path id="Caminho_1113" data-name="Caminho 1113" d="M23.607,5.254l-4.5-1.232V.619A.618.618,0,0,0,18.5,0H5.539a.618.618,0,0,0-.612.619v3.39L.38,5.694a.608.608,0,0,0-.322.785L2.745,14v5.374A.621.621,0,0,0,3.359,20H20.677a.621.621,0,0,0,.614-.625V16.289L24,6.008a.607.607,0,0,0-.389-.754Z" transform="translate(0 0)" fill="url(#radial-gradient)"/>
  </g>
</svg>
