<svg xmlns="http://www.w3.org/2000/svg" width="22" height="18" viewBox="0 0 22 18">
  <path id="home" d="M5.255,11.171a1.089,1.089,0,0,0-.346,1.487,1.056,1.056,0,0,0,1.465.351Zm3.958.058a1.089,1.089,0,0,0,.346-1.486,1.056,1.056,0,0,0-1.465-.351Zm.5-.919a1.065,1.065,0,1,0-2.129,0Zm3.194,12.94a1.08,1.08,0,0,0,0-2.16ZM8.093,9.391a1.089,1.089,0,0,0-.346,1.487,1.056,1.056,0,0,0,1.465.351ZM14.56,6.605,14.1,5.632a1.068,1.068,0,0,0-.1.055Zm2.379,0,.56-.919a1.068,1.068,0,0,0-.1-.055Zm5.347,4.624a1.056,1.056,0,0,0,1.465-.351,1.089,1.089,0,0,0-.346-1.487ZM11.847,22.17a1.065,1.065,0,1,0,2.129,0Zm5.677,0a1.065,1.065,0,1,0,2.129,0Zm-4.613-1.08a1.08,1.08,0,0,0,0,2.16Zm5.677,2.16a1.08,1.08,0,0,0,0-2.16Zm0-2.16a1.08,1.08,0,0,0,0,2.16Zm5.323-10.78a1.065,1.065,0,1,0-2.129,0Zm-.5-.919a1.056,1.056,0,0,0-1.465.351,1.089,1.089,0,0,0,.346,1.486Zm1.719,3.617a1.056,1.056,0,0,0,1.465-.351,1.089,1.089,0,0,0-.346-1.487Zm-18.751,0,2.839-1.78L8.094,9.391l-2.839,1.78Zm1.215-2.7v9.7H9.718v-9.7Zm0,9.7a3.082,3.082,0,0,0,.969,2.443,4.059,4.059,0,0,0,2.721.8V21.09a2.112,2.112,0,0,1-1.341-.283c-.087-.075-.22-.247-.22-.8Zm3.69,3.24h1.632V21.09H11.279ZM9.213,11.229,15.12,7.524,14,5.686,8.093,9.391Zm5.809-3.65a1.659,1.659,0,0,1,1.456,0L17.4,5.632a3.76,3.76,0,0,0-3.3,0Zm1.358-.055,5.907,3.705,1.12-1.837L17.5,5.686Zm-2.4,14.646V20.73H11.847v1.44Zm0-1.44a1.787,1.787,0,0,1,1.774-1.8V16.77a3.932,3.932,0,0,0-3.9,3.96Zm1.774-1.8a1.787,1.787,0,0,1,1.774,1.8h2.129a3.932,3.932,0,0,0-3.9-3.96Zm1.774,1.8v1.44h2.129V20.73Zm-4.613,2.52h5.677V21.09H12.911Zm5.677,0h1.632V21.09H18.589Zm1.632,0a4.058,4.058,0,0,0,2.721-.8,3.082,3.082,0,0,0,.969-2.443H21.782c0,.551-.132.722-.22.8a2.113,2.113,0,0,1-1.342.283Zm3.69-3.24v-9.7H21.782v9.7Zm-1.624-8.781,2.839,1.78,1.119-1.837-2.839-1.78Z" transform="translate(-4.75 -5.25)" fill="#fff"/>
</svg>
