<svg xmlns="http://www.w3.org/2000/svg" width="160.996" height="56.055" viewBox="0 0 160.996 56.055">
  <path id="ibahia" d="M20200.539-10088.965c8.3-3.384,24.947-9.009,29.7-20.245,1.2-2.837-2.875-.943-3.947-.372-3.262,1.733-6.336,4.272-10.008,5.854-4.977,1.8-8.137-1.974-4.41-4.79a36.259,36.259,0,0,1,3.957-2.487l0-.011c3.553-2.141,6.539-3.48,9.65-6.27a16.675,16.675,0,0,0,2.07-2.187,4.491,4.491,0,0,0,1.246-2.651c-.041-.994-1.02-1.171-1.826-1.021-.289.053-1.486.391-1.553.415a35.909,35.909,0,0,0-11.145,7.434,89.56,89.56,0,0,0-8.285,8.6c-1.3,1.519-4.383,5.672-5.023,6.371l0,.006a.539.539,0,0,1-.09.087l0,.006c-2,1.912-8.4,1.239-9.117-1.5a24.453,24.453,0,0,1-.781-5.4,6.848,6.848,0,0,1-.842.411,7.717,7.717,0,0,1-6.949-.73c-1.627-1.141-1.512-2.88.176-3.733.068-.037.834-.462,1.051-.611a22.622,22.622,0,0,0,1.832-1.4,43.146,43.146,0,0,0,7.547-8.876c.787-1.978,4.744-1.647,6.244-1.255,1.7.446,3.906,1.638,3.082,3.7a30.653,30.653,0,0,0-1.443,4.937c1.293-1.315,2.613-2.607,3.979-3.844a60.477,60.477,0,0,1,8.791-7.193c2.93-1.745,6.1-3.5,9.518-3.636,12.619-.483,11.711,10.021,9.1,15.133a7.763,7.763,0,0,1,4.352,3.557,34.365,34.365,0,0,1,5.912-3.173c11.527-4.144,16.373-1.073,18.109.892.643,1.216,1.229,2.465,1.746,3.735.484-.419,8.605-19.6,11.939-27.163.744-1.676,4.789-1.407,6.115-1.224,1.152.157,4.184.743,3.389,2.521-2.35,5.341-5.7,11.649-8.031,16.982.426-.036,1.061-.694,2.3-1.014,2.9-.757,6.244.4,7.131,3.025a7.509,7.509,0,0,1,.318,2.913c.738-.664,2.859-3.828,3.111-4.009,2.2-1.6,9.273-1.061,9.215,1.342-.021,1.056-.473,3.73-.566,4.776,0,0,13.342-7.221,18.334-7.55,4.666-.131,8.736,2.221,8.166,4.231-.256.878-.895,2.03-1.225,2.876a9.685,9.685,0,0,0-.617,2.6c-.17,1.583,1.6,3.978,2.916,4.67a9.689,9.689,0,0,0,2.875.975,15.5,15.5,0,0,0,2.021.046c.088-.01,2.787-.143,4-.278,2.381-.267,2.1-.277,3.7-.354a3.971,3.971,0,0,1,3.484,1.874c.295.385.881,1.05-1.67,1.948a19.425,19.425,0,0,1-3.531.667,55.388,55.388,0,0,1-5.832.281c-3.971.092-7.691.088-11.35-1.545a11.055,11.055,0,0,1-2.891-1.81c-.746.549-1.508,1.061-2.26,1.518a17.428,17.428,0,0,1-9.762,2.708c-2.971-.166-6.2-.836-8.016-3.324a4.45,4.45,0,0,1-.8,1.914c-.1.095-5.209,2.3-7.42-.271-.664-.773-.941-2.932-1.059-4.754-1.42,1.366-2.539,2.72-4.051,4.145-1.2,1.14-2.826,2.905-4.168,3.074a.375.375,0,0,0-.1.015c-3.15.35-6.281.44-5.66-1.742,3.375-11.934,1.32-10.665,1.439-10.846-1.213,1.682-5.283,10.917-6.656,14.09-.744,1.675-5.312,1.242-6.635,1.068-.8-.115-3.369-4.881-5.328-7.236-4.016,4.725-7.674,7.1-13.871,7.937-5.469.837-8.982-.386-10.592-2.575-4.289,3.891-13.639,9.809-23.967,13.333a11,11,0,0,1-3.535.64C20198.873-10082.774,20197.215-10087.546,20200.539-10088.965Zm39.666-11.041c9.535-.9,11.523-8.437,11.3-10.11-4.5,1.565-12.053,5.946-11.287,10.074Zm64.584-3.6,0,.067c4.754.5,10.977-4.148,10.363-8.672-4.916,1.21-10.541,5.079-10.418,8.558Zm0,.043v-.007Zm-8.746-16.445a4.836,4.836,0,0,1-4.7-4.982,4.821,4.821,0,0,1,1.5-3.4,4.793,4.793,0,0,1,3.451-1.331,4.854,4.854,0,0,1,4.7,4.982,4.84,4.84,0,0,1-4.822,4.736l-.139-.014Zm-94.527-6.076a4.843,4.843,0,0,1-4.3-5.331,4.94,4.94,0,0,1,1.764-3.276,4.8,4.8,0,0,1,3.539-1.055,4.857,4.857,0,0,1,4.3,5.342,4.846,4.846,0,0,1-4.791,4.347,4.143,4.143,0,0,1-.586-.022Z" transform="translate(-20181.521 10138.3)" fill="#e31837" stroke="rgba(0,0,0,0)" stroke-width="1"/>
</svg>
