<svg id="instagram" xmlns="http://www.w3.org/2000/svg" width="38" height="38" viewBox="0 0 38 38">
  <rect id="Retângulo_106" data-name="Retângulo 106" width="38" height="38" rx="19" fill="#e31837"/>
  <path id="Icon_awesome-instagram" data-name="Icon awesome-instagram" d="M9.85,7.038A5.052,5.052,0,1,0,14.9,12.091,5.044,5.044,0,0,0,9.85,7.038Zm0,8.337a3.285,3.285,0,1,1,3.284-3.285A3.29,3.29,0,0,1,9.85,15.375Zm6.436-8.544a1.178,1.178,0,1,1-1.178-1.178A1.176,1.176,0,0,1,16.286,6.832Zm3.345,1.2A5.832,5.832,0,0,0,18.04,3.9a5.868,5.868,0,0,0-4.128-1.592c-1.627-.092-6.5-.092-8.128,0A5.86,5.86,0,0,0,1.655,3.894,5.852,5.852,0,0,0,.064,8.023c-.092,1.627-.092,6.5,0,8.13a5.832,5.832,0,0,0,1.591,4.129,5.875,5.875,0,0,0,4.128,1.592c1.627.092,6.5.092,8.128,0a5.83,5.83,0,0,0,4.128-1.592,5.871,5.871,0,0,0,1.591-4.129c.092-1.627.092-6.5,0-8.126ZM17.53,17.9a3.325,3.325,0,0,1-1.873,1.873c-1.3.514-4.374.4-5.807.4s-4.515.114-5.807-.4A3.325,3.325,0,0,1,2.17,17.9c-.514-1.3-.4-4.375-.4-5.809s-.114-4.516.4-5.809A3.325,3.325,0,0,1,4.042,4.409c1.3-.514,4.374-.4,5.807-.4s4.515-.114,5.807.4A3.325,3.325,0,0,1,17.53,6.282c.514,1.3.4,4.375.4,5.809S18.044,16.606,17.53,17.9Z" transform="translate(9.216 6.857)" fill="#fff"/>
</svg>
