<svg xmlns="http://www.w3.org/2000/svg" width="286" height="28" viewBox="0 0 286 28">
  <g id="tarja_mw_golab" transform="translate(-1058 -9072)">
    <path id="designed_by_golab" data-name="designed by golab" d="M6.411,8.867H2.454v9.8H6.411a4.816,4.816,0,0,0,5.207-4.9,4.817,4.817,0,0,0-5.207-4.9m-.056,8.9H3.48v-8H6.355a3.911,3.911,0,0,1,4.248,4,3.911,3.911,0,0,1-4.248,4m9.918-6.519a3.532,3.532,0,0,0-3.567,3.733,3.629,3.629,0,0,0,3.831,3.75,3.58,3.58,0,0,0,2.819-1.2l-.555-.643a2.871,2.871,0,0,1-2.236.966,2.711,2.711,0,0,1-2.873-2.567H19.8c0-.117.015-.223.015-.307a3.5,3.5,0,0,0-3.54-3.733m-2.581,3.3a2.593,2.593,0,0,1,5.178,0ZM26.522,16.63c0,1.273-1.11,2.1-3.012,2.1a4.836,4.836,0,0,1-2.97-.91l.443-.784a4.375,4.375,0,0,0,2.6.826c1.388,0,1.956-.476,1.956-1.2,0-1.917-4.734-.406-4.734-3.317,0-1.2,1.029-2.1,2.889-2.1a4.92,4.92,0,0,1,2.584.685l-.431.8a3.723,3.723,0,0,0-2.153-.63c-1.319,0-1.9.517-1.9,1.218,0,1.983,4.734.489,4.734,3.316M29.29,8.96a.722.722,0,1,1-.723-.685.7.7,0,0,1,.723.685m-1.221,2.333h.986v7.373h-.986Zm9.272,1.423a3.285,3.285,0,0,0-2.887-1.465,3.569,3.569,0,1,0,0,7.135A3.277,3.277,0,0,0,37.3,16.96v.933c0,1.818-.847,2.672-2.692,2.672a4.319,4.319,0,0,1-2.875-1.007l-.5.755a5.064,5.064,0,0,0,3.4,1.134c2.416,0,3.652-1.148,3.652-3.681v-6.46h-.946ZM34.548,17.5a2.62,2.62,0,0,1-2.762-2.7,2.771,2.771,0,0,1,5.538,0,2.632,2.632,0,0,1-2.777,2.7m12.944-3.107v4.274h-.986V14.5a2.048,2.048,0,0,0-2.193-2.351,2.4,2.4,0,0,0-2.56,2.658v3.863h-.986V11.306h.946v1.357a3.058,3.058,0,0,1,2.776-1.412,2.806,2.806,0,0,1,3,3.15m5.266-3.15a3.531,3.531,0,0,0-3.567,3.733,3.854,3.854,0,0,0,6.65,2.546l-.556-.643a2.869,2.869,0,0,1-2.234.966,2.712,2.712,0,0,1-2.875-2.567h6.116c0-.117.014-.223.014-.307a3.5,3.5,0,0,0-3.539-3.733m-2.582,3.3a2.594,2.594,0,0,1,5.179,0Zm13.544-1.842a3.181,3.181,0,0,0-2.781-1.455A3.546,3.546,0,0,0,57.3,14.985a3.558,3.558,0,0,0,3.637,3.752,3.16,3.16,0,0,0,2.82-1.525v1.455H64.7V8.283h-.982Zm-2.693,5.15a2.68,2.68,0,0,1-2.72-2.869,2.718,2.718,0,1,1,5.428,0,2.68,2.68,0,0,1-2.707,2.869m13.279-6.6a3.18,3.18,0,0,0-2.776,1.455V8.283h-.986V18.667h.944V17.212a3.158,3.158,0,0,0,2.819,1.525,3.559,3.559,0,0,0,3.638-3.75,3.547,3.547,0,0,0-3.638-3.733m-.07,6.6a2.68,2.68,0,0,1-2.721-2.869,2.725,2.725,0,1,1,5.443,0,2.693,2.693,0,0,1-2.721,2.869m10.4-6.55h.971l-3.652,8.243c-.61,1.441-1.388,1.9-2.428,1.9a2.488,2.488,0,0,1-1.778-.673l.459-.74a1.818,1.818,0,0,0,1.333.559c.653,0,1.1-.307,1.513-1.231l.32-.714L78.123,11.3h1.028L81.9,17.561ZM105.2,19.825h-2.176c-1.426-.2-1.727-.661-1.727-1.176a1.207,1.207,0,0,1,.6-1.006,6.108,6.108,0,0,0,1.676.2c3.577,0,5.729-1.959,5.729-4.678a4.955,4.955,0,0,0-2.728-4.384,10.293,10.293,0,0,0-1.62-.563,7.953,7.953,0,0,0-1.6-.219c-3.449,0-5.881,1.983-5.881,5a4.058,4.058,0,0,0,2.5,3.919A3.106,3.106,0,0,0,98.3,19.476c0,1.443,1.2,2.667,4.051,2.717H104.5c1.577-.05,2.4.583,2.4,1.591,0,1.133-.8,1.867-3.551,1.867-3.128-.049-3.454-1.1-3.454-2.5l-2.96,1.756h0C97.391,26.9,99.067,28,103.268,28c4.655,0,7.082-1.665,7.082-4.433,0-2.276-2.03-3.944-5.154-3.747m-4.286-7.259a2.392,2.392,0,0,1,2.489-2.294,2.32,2.32,0,0,1,2.572,2.643,2.457,2.457,0,0,1,.017.451,2.6,2.6,0,0,1-4.427,1.519,2.443,2.443,0,0,1-.639-1.941,2.444,2.444,0,0,1-.013-.379m.013.373v.006h0ZM135.151,2.277a6.373,6.373,0,0,0-1.526.859V0l-1,.117V8.107h.874l.1-.611a2.029,2.029,0,0,0,1.552.758c1.426,0,2.3-1.225,2.3-2.988,0-1.911-.9-2.989-2.3-2.989m-.227,5.167a1.629,1.629,0,0,1-1.3-.759V3.967A1.665,1.665,0,0,1,135,3.06c.8,0,1.352.564,1.352,2.2,0,1.543-.575,2.179-1.426,2.179m-4.11-.659V4.165c0-1.177-.623-1.888-2.025-1.888a5.725,5.725,0,0,0-2.028.393l.251.734a5.492,5.492,0,0,1,1.577-.317c.8,0,1.225.319,1.225,1.127v.42h-.9c-1.629,0-2.577.663-2.577,1.888a1.962,1.962,0,0,0,.008.233,1.7,1.7,0,0,0,1.862,1.5,2,2,0,0,0,1.73-.854,1.178,1.178,0,0,0,1.124.854l.251-.711a.672.672,0,0,1-.5-.76m-1-.173a1.527,1.527,0,0,1-1.37.882.869.869,0,0,1-.24,0,.906.906,0,0,1-.761-1.027h0c0-.783.523-1.176,1.6-1.176h.776ZM118.264,8.061c-4.2,0-6.68,2.841-6.68,7.2v-.006c0,4.557,2.378,7.4,6.829,7.4s6.855-2.691,6.855-7.467-2.328-7.127-7-7.127m3.879,2.107-.425,2.326a1.468,1.468,0,0,0-.051.589,5.55,5.55,0,0,1,.4,2.179c0,2.669-1.378,4.164-3.654,4.164s-3.652-1.591-3.652-4.115h0c0-2.424,1.328-4.017,3.577-4.017.2,0,.375.023.548.023a1.12,1.12,0,0,0,.225.023.1.1,0,0,0,.074.023,2.1,2.1,0,0,0,.4,0,1.984,1.984,0,0,0,.425-.219l1.928-1.127s.1-.072.173-.023c.048.023.023.17.023.17m2.926-2.815.548.467a2.286,2.286,0,0,1-1.152.44c-.751,0-1.151-.442-1.151-1.276h0V.117l1-.117V6.956c0,.317.1.467.375.467a.948.948,0,0,0,.372-.072" transform="translate(1206.546 9072)" fill="#181818"/>
    <path id="developed_by_mundiware" data-name="developed by mundiware" d="M4,45.051H0V54.7H4c3.144,0,5.264-1.984,5.264-4.829S7.144,45.045,4,45.045m-.056,8.776h-2.9V45.933h2.9A4.029,4.029,0,0,1,7.653,47.82a3.905,3.905,0,0,1,0,4.113,4.029,4.029,0,0,1-3.708,1.887M13.977,47.4a3.575,3.575,0,0,0-2.615,1.067,3.469,3.469,0,0,0-.992,2.612,3.572,3.572,0,0,0,1.111,2.69,3.682,3.682,0,0,0,2.764,1.005,3.666,3.666,0,0,0,2.849-1.185l-.561-.635a2.937,2.937,0,0,1-2.261.952,2.755,2.755,0,0,1-1.985-.666,2.676,2.676,0,0,1-.92-1.857h6.176c0-.115.014-.221.014-.3a3.432,3.432,0,0,0-.97-2.615,3.538,3.538,0,0,0-2.61-1.064m-2.61,3.254a2.626,2.626,0,0,1,5.236,0Zm13.024-3.2h.983L22.089,54.7H21.065L17.8,47.452h1.039L21.6,53.629Zm4.762-.055a3.576,3.576,0,0,0-2.615,1.067,3.47,3.47,0,0,0-.992,2.612,3.571,3.571,0,0,0,1.11,2.69,3.681,3.681,0,0,0,2.764,1.005,3.668,3.668,0,0,0,2.85-1.185l-.562-.635a2.937,2.937,0,0,1-2.26.952,2.754,2.754,0,0,1-1.985-.666,2.675,2.675,0,0,1-.919-1.858h6.175c0-.115.015-.221.015-.3a3.433,3.433,0,0,0-.971-2.614,3.539,3.539,0,0,0-2.61-1.065m-2.61,3.254a2.627,2.627,0,0,1,5.235,0Zm7.949-6.177h1V54.705h-1ZM41.007,47.4a3.689,3.689,0,1,0,3.748,3.679,3.546,3.546,0,0,0-1.066-2.64A3.655,3.655,0,0,0,41.007,47.4m0,6.509a2.877,2.877,0,0,1-2.746-1.655,2.8,2.8,0,0,1,.537-3.128,2.9,2.9,0,0,1,3.145-.673,2.831,2.831,0,0,1,1.8,2.627,2.637,2.637,0,0,1-.741,2,2.718,2.718,0,0,1-2,.823M50.32,47.4a3.232,3.232,0,0,0-2.849,1.495V47.452h-.955V57.38h1V53.338a3.241,3.241,0,0,0,2.807,1.434,3.689,3.689,0,1,0,0-7.377M50.251,53.9a2.875,2.875,0,0,1-2.737-1.663,2.8,2.8,0,0,1,.544-3.123,2.9,2.9,0,0,1,3.143-.667A2.83,2.83,0,0,1,53,51.077a2.637,2.637,0,0,1-.745,2.009,2.718,2.718,0,0,1-2.006.818m8.37-6.509a3.575,3.575,0,0,0-2.615,1.067,3.469,3.469,0,0,0-.992,2.612,3.855,3.855,0,0,0,2.52,3.446,3.947,3.947,0,0,0,4.2-.936l-.563-.635a2.937,2.937,0,0,1-2.259.952,2.756,2.756,0,0,1-1.985-.666,2.677,2.677,0,0,1-.921-1.857H62.18c0-.115.014-.221.014-.3a3.432,3.432,0,0,0-.97-2.614A3.537,3.537,0,0,0,58.614,47.4M56,50.649a2.626,2.626,0,0,1,5.236,0Zm13.7-1.818A3.244,3.244,0,0,0,66.89,47.4a3.688,3.688,0,0,0,0,7.377,3.214,3.214,0,0,0,2.851-1.5v1.434H70.7V44.473h-1Zm-2.724,5.075a2.877,2.877,0,0,1-2.748-1.653,2.8,2.8,0,0,1,.535-3.129,2.9,2.9,0,0,1,3.146-.674,2.831,2.831,0,0,1,1.8,2.628,2.637,2.637,0,0,1-.741,2,2.718,2.718,0,0,1-2,.823M80.4,47.4a3.238,3.238,0,0,0-2.806,1.434V44.474h-1V54.706h.955V53.269a3.209,3.209,0,0,0,2.849,1.5,3.689,3.689,0,1,0,0-7.377M80.333,53.9A2.875,2.875,0,0,1,77.6,52.241a2.8,2.8,0,0,1,.544-3.123,2.9,2.9,0,0,1,3.143-.667,2.83,2.83,0,0,1,1.8,2.625,2.638,2.638,0,0,1-.746,2.009,2.719,2.719,0,0,1-2.005.818M90.85,47.452h.982L88.14,55.573c-.617,1.42-1.4,1.875-2.45,1.875a2.547,2.547,0,0,1-1.8-.662l.467-.73a1.859,1.859,0,0,0,1.349.552c.659,0,1.108-.3,1.528-1.214l.324-.7-3.3-7.243H85.3l2.78,6.164Zm26.1,9.7c.025.011.077.046.077.046v4.4c-1.867-.592-12.4-3.961-12.787-4.111a1.735,1.735,0,0,1-.213-.1l5.632-1.8,1.241-.4ZM110.9,45.025l-6.876-2.2a1.917,1.917,0,0,1,.213-.1c.372-.145,10.937-3.531,12.788-4.111v4.369a.232.232,0,0,1-.083.076c-.176.063-4.239,1.388-6.043,1.968m-7.149,2.593V43.5a1.185,1.185,0,0,1,.028-.272L110.87,45.5c3.6,1.16,5.505,1.775,5.658,1.84a.818.818,0,0,1,.39.249c-1.08.535-3.689,1.411-6.314,2.276-2.5-.819-5.043-1.65-6.633-2.155l-.143-.045c-.029-.017-.071-.046-.071-.046m5.748,7.513-5.748,1.84V52.612l.089-.087c.892-.267,10.659-3.293,13.19-4.454l-.048.08v4a.623.623,0,0,1-.5.72c-.177.075-2.658.871-6.987,2.259m17.48.46,5.623,1.8a1.106,1.106,0,0,1-.213.1c-.378.151-10.925,3.5-12.793,4.111V57.2s.052-.034.077-.046l6.066-1.969Zm6.008-12.61h0l-.009.006-.006-.006H133Zm-13.3.08a.349.349,0,0,1-.094-.079V38.613c1.844.581,12.415,3.967,12.781,4.111a1.173,1.173,0,0,1,.213.1l-6.853,2.2Zm13.171,4.556.025.006s-.041.029-.071.046l-.141.04c-1.59.5-4.138,1.336-6.639,2.155-2.619-.866-5.226-1.742-6.308-2.276a.768.768,0,0,1,.39-.249c.153-.064,2.059-.679,5.652-1.84l7.1-2.265a1.176,1.176,0,0,1,0,.272Zm-.076,4.914.089.087v4.065a.93.93,0,0,1,0,.2v.1l-5.747-1.84c-4.33-1.388-6.811-2.184-6.988-2.259a.623.623,0,0,1-.552-.69l.007-.045V48.071c2.53,1.161,12.289,4.187,13.191,4.454" transform="translate(1058 9035.393)" fill="#181818"/>
  </g>
</svg>
