<svg xmlns="http://www.w3.org/2000/svg" width="38" height="38" viewBox="0 0 38 38">
  <g id="tiktok" transform="translate(0.089)">
    <rect id="Retângulo_4771" data-name="Retângulo 4771" width="38" height="38" rx="19" transform="translate(-0.089)" fill="#e31837"/>
    <path id="tiktok-2" data-name="tiktok" d="M9.856.014C10.751,0,11.64.007,12.529,0a4.536,4.536,0,0,0,1.2,2.972,4.724,4.724,0,0,0,2.9,1.275V7.12a7.072,7.072,0,0,1-2.871-.691,8.363,8.363,0,0,1-1.107-.665c-.007,2.081.007,4.163-.013,6.236a5.6,5.6,0,0,1-.923,2.808A5.044,5.044,0,0,1,7.668,17.1a4.827,4.827,0,0,1-2.789-.734,5.4,5.4,0,0,1-2.5-4.07c-.013-.356-.021-.713-.007-1.062A5.426,5.426,0,0,1,4.141,7.7a4.942,4.942,0,0,1,4.2-1.226c.013,1.055-.028,2.11-.028,3.165A2.309,2.309,0,0,0,6.252,9.9a2.463,2.463,0,0,0-.929,1.247,2.946,2.946,0,0,0-.1,1.147A2.354,2.354,0,0,0,7.62,14.341a2.281,2.281,0,0,0,1.894-1.147,1.686,1.686,0,0,0,.28-.756c.068-1.275.041-2.544.048-3.821.007-2.872-.007-5.737.013-8.6Z" transform="translate(9.499 10.457)" fill="#fff"/>
  </g>
</svg>
