<svg xmlns="http://www.w3.org/2000/svg" width="38" height="38" viewBox="0 0 38 38">
  <g id="whatsapp" transform="translate(0.057 -0.054)">
    <rect id="Retângulo_4770" data-name="Retângulo 4770" width="38" height="38" rx="19" transform="translate(-0.057 0.054)" fill="#e31837"/>
    <path id="whatsapp-2" data-name="whatsapp" d="M13.9,11.423c-.239-.119-1.4-.689-1.62-.767s-.376-.119-.535.119-.612.762-.75.923-.277.167-.513.059a6.446,6.446,0,0,1-1.906-1.179A7.205,7.205,0,0,1,7.253,8.933c-.138-.238-.015-.369.1-.488s.239-.274.358-.416a2.013,2.013,0,0,0,.236-.394.437.437,0,0,0-.02-.416C7.871,7.1,7.4,5.933,7.2,5.468s-.387-.405-.534-.405-.3-.011-.454-.011a.9.9,0,0,0-.633.286A2.651,2.651,0,0,0,4.748,7.3a4.647,4.647,0,0,0,.97,2.44,10.591,10.591,0,0,0,4.051,3.563c.572.238,1.008.381,1.353.5a3.286,3.286,0,0,0,1.493.1,2.445,2.445,0,0,0,1.6-1.132,1.966,1.966,0,0,0,.143-1.132c-.059-.107-.214-.167-.453-.274M9.582,17.271H9.57a7.945,7.945,0,0,1-4.015-1.1l-.286-.17-2.981.778.8-2.895-.191-.3A7.877,7.877,0,0,1,15.164,3.869a7.774,7.774,0,0,1,2.31,5.552,7.887,7.887,0,0,1-7.891,7.852M16.3,2.739A9.643,9.643,0,0,0,9.566,0,9.443,9.443,0,0,0,1.347,14.168L0,19.062l5.031-1.312A9.58,9.58,0,0,0,9.566,18.9h0a9.483,9.483,0,0,0,9.491-9.448,9.368,9.368,0,0,0-2.776-6.68" transform="translate(10.469 9.531)" fill="#fff"/>
  </g>
</svg>
