<svg xmlns="http://www.w3.org/2000/svg" width="38" height="38" viewBox="0 0 38 38">
  <g id="youtube" transform="translate(0.066)">
    <rect id="Retângulo_4764" data-name="Retângulo 4764" width="38" height="38" rx="19" transform="translate(-0.066)" fill="#e31837"/>
    <path id="Icon_awesome-youtube" data-name="Icon awesome-youtube" d="M21.784,6.83a2.661,2.661,0,0,0-1.872-1.884C18.26,4.5,11.638,4.5,11.638,4.5s-6.622,0-8.274.445A2.661,2.661,0,0,0,1.492,6.83a27.913,27.913,0,0,0-.443,5.13,27.913,27.913,0,0,0,.443,5.13,2.621,2.621,0,0,0,1.872,1.854c1.651.445,8.274.445,8.274.445s6.622,0,8.274-.445a2.621,2.621,0,0,0,1.872-1.854,27.913,27.913,0,0,0,.443-5.13,27.913,27.913,0,0,0-.443-5.13ZM9.472,15.109v-6.3l5.535,3.149L9.472,15.109Z" transform="translate(7.36 6.869)" fill="#fff"/>
  </g>
</svg>
